<?xml version="1.0" encoding="iso-8859-1"?>
<!-- Generator: Adobe Illustrator 19.0.0, SVG Export Plug-In . SVG Version: 6.00 Build 0)  -->
<svg version="1.1" id="Layer_1" xmlns="http://www.w3.org/2000/svg" xmlns:xlink="http://www.w3.org/1999/xlink" x="0px" y="0px"
	 viewBox="0 0 290.512 290.512" style="enable-background:new 0 0 290.512 290.512;" xml:space="preserve">
<g>
	<g>
		<path style="fill:#F9BA48;" d="M145.256,290.512c-41.754,0-59.367-36.773-70.041-68.804c-2.221-6.658-8.467-14.034-15.697-22.58
			c-15.228-17.998-36.089-42.649-36.089-81.985C23.429,49.265,74.666,0,145.256,0s121.827,49.265,121.827,117.142
			c0,39.341-20.861,63.988-36.089,81.99c-7.23,8.542-13.476,15.922-15.697,22.576C204.623,253.738,187.01,290.512,145.256,290.512z"
			/>
		<path style="fill:#333333;" d="M118.749,182.751c-6.152,0-15.814-1.57-31.202-6.705c-23.892-7.966-36.005-20.495-36.005-37.242
			c0-20.322,17.168-37.485,37.485-37.485c16.751,0,29.285,12.112,37.246,36.005c11.344,34.009,5.295,40.053,3.313,42.04
			C128.495,180.45,126.194,182.751,118.749,182.751z M89.028,110.69c-15.238,0-28.114,12.876-28.114,28.114
			c0,12.267,9.957,21.802,29.595,28.358c19.155,6.377,30.522,7.094,32.472,5.553c1.495-1.907,0.787-13.279-5.599-32.425l0,0
			C110.835,120.647,101.3,110.69,89.028,110.69z"/>
		<path style="fill:#333333;" d="M171.763,182.751c-7.45,0-9.751-2.305-10.838-3.392c-1.982-1.987-8.022-8.027,3.313-42.04l0,0
			c7.966-23.892,20.5-36.005,37.246-36.005c20.317,0,37.485,17.164,37.485,37.485c0,16.747-12.112,29.276-36.005,37.242
			C187.581,181.176,177.915,182.751,171.763,182.751z M173.131,140.284c-6.382,19.15-7.089,30.518-5.553,32.472
			c1.902,1.495,13.27,0.787,32.425-5.595c19.638-6.555,29.595-16.095,29.595-28.358c0-15.238-12.876-28.114-28.114-28.114
			C189.217,110.69,179.677,120.647,173.131,140.284L173.131,140.284z"/>
		<path style="fill:#333333;" d="M168.684,224.912h-9.371c0-2.586-2.104-4.686-4.686-4.686s-4.686,2.099-4.686,4.686h-9.371
			c0-2.586-2.104-4.686-4.686-4.686s-4.686,2.099-4.686,4.686h-9.371c0-7.75,6.307-14.057,14.057-14.057
			c3.599,0,6.883,1.359,9.371,3.589c2.488-2.23,5.773-3.589,9.371-3.589C162.377,210.855,168.684,217.162,168.684,224.912z"/>
		<path style="fill:#333333;" d="M145.256,253.026c-18.7,0-32.8-8.059-32.8-18.743h9.371c0,3.819,9.128,9.371,23.428,9.371
			c14.301,0,23.428-5.553,23.428-9.371h9.371C178.055,244.967,163.956,253.026,145.256,253.026z"/>
		<path style="fill:#333333;" d="M78.382,54.757l-6.822-6.424c17.21-18.279,44.354-29.59,59.639-29.59v9.371
			C117.807,28.114,93.39,38.816,78.382,54.757z"/>
		<rect x="140.57" y="18.743" style="fill:#333333;" width="9.371" height="9.371"/>
	</g>
</g>
<g>
</g>
<g>
</g>
<g>
</g>
<g>
</g>
<g>
</g>
<g>
</g>
<g>
</g>
<g>
</g>
<g>
</g>
<g>
</g>
<g>
</g>
<g>
</g>
<g>
</g>
<g>
</g>
<g>
</g>
</svg>
