<?xml version="1.0" encoding="iso-8859-1"?>
<!-- Generator: Adobe Illustrator 19.0.0, SVG Export Plug-In . SVG Version: 6.00 Build 0)  -->
<svg version="1.1" id="Layer_1" xmlns="http://www.w3.org/2000/svg" xmlns:xlink="http://www.w3.org/1999/xlink" x="0px" y="0px"
	 viewBox="0 0 290.513 290.513" style="enable-background:new 0 0 290.513 290.513;" xml:space="preserve">
<g>
	<g>
		<circle style="fill:#F9BA48;" cx="145.255" cy="135.884" r="46.857"/>
		<path style="fill:#333333;" d="M257.711,253.026c-7.75,0-14.057-6.307-14.057-14.057v-89.028
			c0-31.253-14.694-59.091-37.485-77.131V32.8h-9.371v33.479c-15.013-9.282-32.631-14.736-51.542-14.736
			s-36.529,5.454-51.542,14.736V32.8h-9.371v40.011c-22.791,18.04-37.485,45.877-37.485,77.131v89.028
			c0,7.75-6.307,14.057-14.057,14.057c-10.337,0-18.743,8.406-18.743,18.743s8.406,18.743,18.743,18.743h84.342v-4.686
			c0-15.505,12.609-28.114,28.114-28.114s28.114,12.609,28.114,28.114v4.686h84.342c10.337,0,18.743-8.406,18.743-18.743
			C276.453,261.432,268.047,253.026,257.711,253.026z M257.711,281.14H182.45c-2.315-18.462-18.115-32.8-37.195-32.8
			s-34.88,14.338-37.195,32.8H32.799c-5.168,0-9.371-4.203-9.371-9.371s4.203-9.371,9.371-9.371
			c12.918,0,23.428-10.51,23.428-23.428v-89.028c0-49.092,39.936-89.028,89.028-89.028s89.028,39.936,89.028,89.028v89.028
			c0,12.918,10.51,23.428,23.428,23.428c5.168,0,9.371,4.203,9.371,9.371S262.879,281.14,257.711,281.14z"/>
		<path style="fill:#333333;" d="M178.054,196.798h-65.599c-7.75,0-14.057,6.307-14.057,14.057c0,5.852,7.567,21.048,9.887,25.57
			l4.17,8.116l4.17-8.116c2.319-4.522,9.887-19.717,9.887-25.57c0-1.649-0.337-3.214-0.862-4.686h39.214
			c-0.529,1.471-0.867,3.036-0.867,4.686c0,5.852,7.567,21.048,9.887,25.57l4.17,8.116l4.17-8.116
			c2.319-4.522,9.887-19.717,9.887-25.57C192.111,203.105,185.804,196.798,178.054,196.798z M117.141,210.85
			c-0.028,1.668-2.071,6.911-4.686,12.661c-2.615-5.754-4.658-10.988-4.686-12.656c0-2.586,2.104-4.686,4.686-4.686
			S117.141,208.269,117.141,210.85z M178.054,223.511c-2.615-5.754-4.658-10.988-4.686-12.656c0-2.586,2.104-4.686,4.686-4.686
			s4.686,2.099,4.686,4.681C182.712,212.519,180.669,217.762,178.054,223.511z"/>
		<path style="fill:#333333;" d="M145.255,163.998c15.505,0,28.114-12.609,28.114-28.114s-12.609-28.114-28.114-28.114
			s-28.114,12.609-28.114,28.114S129.75,163.998,145.255,163.998z M163.332,131.199H149.94v-13.392
			C156.496,119.513,161.626,124.644,163.332,131.199z M140.569,117.807v22.763h22.763c-2.094,8.059-9.371,14.057-18.077,14.057
			c-10.337,0-18.743-8.406-18.743-18.743C126.512,127.178,132.51,119.902,140.569,117.807z"/>
		<rect x="65.598" y="135.884" style="fill:#333333;" width="9.371" height="42.171"/>
		<rect x="65.598" y="187.427" style="fill:#333333;" width="9.371" height="9.371"/>
		<circle style="fill:#F9BA48;" cx="89.027" cy="18.743" r="18.743"/>
		<circle style="fill:#F9BA48;" cx="201.483" cy="18.743" r="18.743"/>
	</g>
</g>
<g>
</g>
<g>
</g>
<g>
</g>
<g>
</g>
<g>
</g>
<g>
</g>
<g>
</g>
<g>
</g>
<g>
</g>
<g>
</g>
<g>
</g>
<g>
</g>
<g>
</g>
<g>
</g>
<g>
</g>
</svg>
