<?xml version="1.0" encoding="iso-8859-1"?>
<!-- Generator: Adobe Illustrator 19.0.0, SVG Export Plug-In . SVG Version: 6.00 Build 0)  -->
<svg version="1.1" id="Layer_1" xmlns="http://www.w3.org/2000/svg" xmlns:xlink="http://www.w3.org/1999/xlink" x="0px" y="0px"
	 viewBox="0 0 290.512 290.512" style="enable-background:new 0 0 290.512 290.512;" xml:space="preserve">
<g>
	<g>
		
			<rect x="203.833" y="-5.3" transform="matrix(0.1738 -0.9848 0.9848 0.1738 137.6664 234.3813)" style="fill:#F9BA48;" width="9.367" height="80.892"/>
		
			<rect x="215.479" y="100.738" transform="matrix(0.0527 -0.9986 0.9986 0.0527 141.0687 359.5624)" style="fill:#F9BA48;" width="89.148" height="9.376"/>
		
			<rect x="194.457" y="27.173" transform="matrix(0.7962 -0.6051 0.6051 0.7962 -20.3672 141.0318)" style="fill:#F9BA48;" width="9.372" height="147.147"/>
		
			<rect x="77.368" y="74.969" transform="matrix(0.3165 -0.9486 0.9486 0.3165 7.7075 170.0026)" style="fill:#F9BA48;" width="88.908" height="9.367"/>
		
			<rect x="45.58" y="138.232" transform="matrix(0.9362 -0.3514 0.3514 0.9362 -46.0396 32.166)" style="fill:#F9BA48;" width="40.032" height="9.376"/>
		
			<rect x="175.353" y="192.1" transform="matrix(0.9286 -0.3711 0.3711 0.9286 -57.8029 93.1702)" style="fill:#F9BA48;" width="75.697" height="9.371"/>
		<rect x="168.684" y="224.912" style="fill:#F9BA48;" width="9.371" height="23.428"/>
		<path style="fill:#333333;" d="M32.8,182.741c-12.918,0-23.428-10.51-23.428-23.428s10.51-23.428,23.428-23.428
			s23.428,10.51,23.428,23.428C56.228,172.231,45.718,182.741,32.8,182.741z M32.8,145.256c-7.75,0-14.057,6.307-14.057,14.057
			S25.05,173.37,32.8,173.37s14.057-6.307,14.057-14.057S40.55,145.256,32.8,145.256z"/>
		<path style="fill:#333333;" d="M173.37,290.512c-12.918,0-23.428-10.51-23.428-23.428s10.51-23.428,23.428-23.428
			s23.428,10.51,23.428,23.428C196.798,280.002,186.288,290.512,173.37,290.512z M173.37,253.026
			c-7.75,0-14.057,6.307-14.057,14.057s6.307,14.057,14.057,14.057s14.057-6.307,14.057-14.057S181.12,253.026,173.37,253.026z"/>
		<path style="fill:#333333;" d="M262.397,65.599c-10.337,0-18.743-8.406-18.743-18.743s8.406-18.743,18.743-18.743
			s18.743,8.406,18.743,18.743S272.734,65.599,262.397,65.599z M262.397,37.485c-5.168,0-9.371,4.203-9.371,9.371
			s4.203,9.371,9.371,9.371s9.371-4.203,9.371-9.371S267.566,37.485,262.397,37.485z"/>
		<path style="fill:#333333;" d="M257.712,192.112c-12.918,0-23.428-10.51-23.428-23.428s10.51-23.428,23.428-23.428
			c12.918,0,23.428,10.51,23.428,23.428S270.63,192.112,257.712,192.112z M257.712,154.627c-7.75,0-14.057,6.307-14.057,14.057
			s6.307,14.057,14.057,14.057c7.75,0,14.057-6.307,14.057-14.057S265.462,154.627,257.712,154.627z"/>
		<path style="fill:#333333;" d="M149.941,46.857c-12.918,0-23.428-10.51-23.428-23.428S137.023,0,149.941,0
			s23.428,10.51,23.428,23.428S162.86,46.857,149.941,46.857z M149.941,9.371c-7.75,0-14.057,6.307-14.057,14.057
			s6.307,14.057,14.057,14.057s14.057-6.307,14.057-14.057S157.692,9.371,149.941,9.371z"/>
		<path style="fill:#333333;" d="M173.37,229.598c-7.75,0-14.057-6.307-14.057-14.057s6.307-14.057,14.057-14.057
			s14.057,6.307,14.057,14.057S181.12,229.598,173.37,229.598z M173.37,210.855c-2.586,0-4.686,2.099-4.686,4.686
			c0,2.586,2.099,4.686,4.686,4.686c2.586,0,4.686-2.099,4.686-4.686C178.055,212.954,175.956,210.855,173.37,210.855z"/>
		<path style="fill:#333333;" d="M98.399,149.941c-10.337,0-18.743-8.406-18.743-18.743s8.406-18.743,18.743-18.743
			s18.743,8.406,18.743,18.743S108.736,149.941,98.399,149.941z M98.399,121.827c-5.168,0-9.371,4.203-9.371,9.371
			c0,5.168,4.203,9.371,9.371,9.371s9.371-4.203,9.371-9.371C107.77,126.03,103.567,121.827,98.399,121.827z"/>
	</g>
</g>
<g>
</g>
<g>
</g>
<g>
</g>
<g>
</g>
<g>
</g>
<g>
</g>
<g>
</g>
<g>
</g>
<g>
</g>
<g>
</g>
<g>
</g>
<g>
</g>
<g>
</g>
<g>
</g>
<g>
</g>
</svg>
